<svg width="380" height="152" viewBox="0 0 380 152" fill="none" xmlns="http://www.w3.org/2000/svg">
<path d="M380 0V127.101H25.793V0H380ZM35.0612 117.832H370.732V9.26859H35.0612V117.832Z" fill="#007200"/>
<path d="M4.63086 28.8115H349.57V146.482H4.63086V28.8115Z" fill="white"/>
<path d="M354.207 24.1807V151.12H0V24.1807H354.207ZM9.26822 141.851H344.939V33.4493H9.26822V141.851Z" fill="#007200"/>
<path d="M271.36 104.313C276.299 113.753 285.19 119.241 295.397 119.241C305.605 119.241 313.508 114.192 313.508 105.191C313.508 95.6414 304.398 93.9949 292.434 91.141C280.031 88.1773 267.737 84.7746 267.737 69.9562C267.737 56.1258 279.702 47.125 294.629 47.125C308.349 47.125 318.228 53.7109 322.948 62.602L314.935 68.9684C310.874 61.3945 304.617 56.2355 294.41 56.2355C284.86 56.2355 277.945 61.5043 277.945 69.0781C277.945 77.4203 285.299 79.1766 296.385 81.8109C309.447 84.8844 323.826 87.6285 323.826 104.313C323.826 119.021 310.764 128.352 295.178 128.352C281.567 128.352 268.506 121.546 263.127 110.899L271.36 104.313Z" fill="#007200"/>
<path d="M254.026 127.144H243.489V48.332H254.026V127.144Z" fill="#007200"/>
<path d="M182.86 127.141H172.323V48.3296H202.398C219.081 48.3296 229.728 54.696 229.728 69.7339C229.728 82.3569 222.045 88.9429 209.532 91.0284L231.375 127.141H219.301L198.117 91.0284H182.86V127.141ZM203.495 81.8081C212.935 81.8081 219.301 78.6249 219.301 69.7339C219.301 60.8429 213.044 57.4401 201.849 57.4401H182.86V81.8081H203.495Z" fill="#007200"/>
<path d="M158.517 48.3296V57.5499H117.466V81.8081H152.261V91.0284H117.466V117.921H158.517V127.141H107.039V48.3296H158.517Z" fill="#007200"/>
<path d="M55.7053 127.141L25.7402 48.3296H37.0457L61.4129 113.969L85.78 48.3296H96.5367L66.7912 127.141H55.7053Z" fill="#007200"/>
</svg>
